<svg id="svg2" xmlns="http://www.w3.org/2000/svg" viewBox="200 0 533.33331 200">
    <defs>
        <style>
            .cls-1{fill:#239de0}.cls-2{fill:#fff}.cls-3{isolation:isolate}.cls-4{fill:#239de0}
        </style>
    </defs>
    <title>
        velero
    </title>
    <g id="g36">
        <g id="text40" class="cls-3">
            <g class="cls-3">
                <path class="cls-4" d="M249.64551,73.61865l-24.24072,54.96143H218.605L194.36426,73.61865h6.80029l20.88037,47.28174,20.80029-47.28174Z"/>
            </g>
            <g class="cls-3">
                <path class="cls-4" d="M262.44287,79.53906V97.61914H292.2832v5.91992H262.44287v19.1211h33.12158v5.91992h-39.4414V73.61865h39.4414v5.92041Z"/>
            </g>
            <g class="cls-3">
                <path class="cls-4" d="M339.24414,122.66016v5.91992H303.00293V73.61865h6.24023v49.04151Z"/>
            </g>
            <g class="cls-3">
                <path class="cls-4" d="M352.20312,79.53906V97.61914H382.044v5.91992H352.20312v19.1211h33.1211v5.91992H345.88281V73.61865h39.44141v5.92041Z"/>
            </g>
            <g class="cls-3">
                <path class="cls-4" d="M421.24316,108.25977l14.24024,20.32031h-7.12012l-13.91992-19.75977H399.88281v19.75977h-6.24023V73.61865h22.32031c11.36035,0,20.24023,7.28028,20.24023,17.60059C436.20312,99.85938,429.96289,106.41992,421.24316,108.25977Zm-21.36035-5.36036h14.96c8.96,0,15.04-4.31982,15.04-11.68017s-6.08008-11.68018-15.04-11.68018h-14.96Z"/>
            </g>
            <g class="cls-3">
                <path class="cls-4" d="M441.082,101.05957c0-15.44043,12.96094-28.40088,28.16113-28.40088,15.28028,0,28.08106,12.96045,28.08106,28.40088S484.52344,129.54,469.24316,129.54C454.043,129.54,441.082,116.5,441.082,101.05957Zm49.92188,0c0-12.24023-9.91993-22.64062-21.76075-22.64062s-21.84082,10.40039-21.84082,22.64062c0,12.32031,10,22.71973,21.84082,22.71973S491.00391,113.37988,491.00391,101.05957Z"/>
            </g>
        </g>
    </g>
</svg>
